# xmcd CD database file
#
# Track frame offsets:
#	150
#	20034
#	36979
#	55196
#	75938
#	89416
#	100549
#	111556
#	121260
#	137912
#	157575
#	163598
#	172558
#
# Disc length: 2538 seconds
#
# Revision: 0
# Processed by: cddbd v1.4PL0 Copyright (c) Steve Scherf et al.
# Submitted via: Feurio! 1.66 - http://www.feurio.com
#
DISCID=9409e80d
DTITLE=Tom Waits - Blood Money
DYEAR=1900
DGENRE=Blues
TTITLE0=Misery Is the River of the World
TTITLE1=Everything goes to hell
TTITLE2=Coney island baby
TTITLE3=All the world is green
TTITLE4=God's away on business
TTITLE5=Another man's vine
TTITLE6=Knife chase
TTITLE7=Lullaby
TTITLE8=Starving in the Belly of a Whale
TTITLE9=The part you throw away
TTITLE10=Woe
TTITLE11=Calliope
TTITLE12=A good man is hard to find
EXTD=
EXTT0=
EXTT1=
EXTT2=
EXTT3=
EXTT4=
EXTT5=
EXTT6=
EXTT7=
EXTT8=
EXTT9=
EXTT10=
EXTT11=
EXTT12=
PLAYORDER=
